# xmcd
#
# Track frame offsets: 
#        150
#        18638
#        33792
#        51579
#        68992
#        91542
#        106360
#        122415
#        143016
#        159041
#
# Disc length: 2347 seconds
#
# Revision: 0
# Processed by: cddbd v1.4PL0 Copyright (c) Steve Scherf et al.
# Submitted via: ExactAudioCopy v0.95a3
#
DISCID=7509290a
DTITLE=Шанхай - 7+1
DYEAR=1998
DGENRE=Blues
TTITLE0=Блюз для Анны
TTITLE1=Да и нет
TTITLE2=Джаз
TTITLE3=Земляничные поляны
TTITLE4=Когда ты уйдешь
TTITLE5=Я еду по дороге
TTITLE6=Снег
TTITLE7=40 лет
TTITLE8=Подруга номер пять
TTITLE9=Последняя
EXTD=
EXTT0=
EXTT1=
EXTT2=
EXTT3=
EXTT4=
EXTT5=
EXTT6=
EXTT7=
EXTT8=
EXTT9=
PLAYORDER=
